<?xml version="1.0" standalone="no"?>
<!DOCTYPE svg PUBLIC "-//W3C//DTD SVG 20010904//EN"
 "http://www.w3.org/TR/2001/REC-SVG-20010904/DTD/svg10.dtd">
<svg version="1.0" xmlns="http://www.w3.org/2000/svg"
 width="500.000000pt" height="500.000000pt" viewBox="0 0 500.000000 500.000000"
 preserveAspectRatio="xMidYMid meet">
<metadata>
Created by potrace 1.14, written by Peter Selinger 2001-2017
</metadata>
<g transform="translate(0.000000,500.000000) scale(0.100000,-0.100000)"
fill="#000000" stroke="none">
<path d="M2255 4263 c-210 -31 -390 -89 -574 -184 -124 -65 -119 -61 -206
-123 -244 -173 -439 -402 -573 -671 -45 -91 -110 -266 -126 -340 -6 -27 -15
-33 -84 -59 -384 -142 -533 -309 -436 -486 57 -104 200 -198 436 -286 43 -16
78 -34 78 -40 0 -6 20 -70 43 -141 171 -505 546 -897 1049 -1097 89 -35 280
-83 404 -100 120 -18 348 -17 476 0 390 54 762 241 1025 515 165 173 233 269
336 474 36 72 127 321 127 349 0 6 56 32 123 58 152 59 260 122 331 193 117
116 119 230 4 347 -79 81 -192 144 -379 214 l-76 29 -13 50 c-7 27 -18 56 -24
64 -6 8 -9 15 -7 15 10 2 -45 149 -89 236 -69 139 -106 199 -187 305 -270 352
-668 591 -1118 671 -127 22 -413 26 -540 7z"/>
</g>
</svg>
